<svg id="alert-1" xmlns="http://www.w3.org/2000/svg" viewBox="0 0 17.58 17.6">
  <path class="cls-1" d="M15.76 3.39a12.36 12.36 0 0 1 1.1 1.9 8.71 8.71 0 0 1 .22 6.39 8.33 8.33 0 0 1-4.15 4.85A8.64 8.64 0 0 1 4 16.17c-.11-.07-.2-.16-.35-.12l-3 .85c-.12-.13 0-.26 0-.37.23-.89.46-1.78.72-2.66a.65.65 0 0 0-.09-.55A8.47 8.47 0 0 1 .15 7.27a8.49 8.49 0 0 1 5-6.47 8.75 8.75 0 0 1 10.14 2.08l.4.44.08.07zm-.17 5.39a6.73 6.73 0 1 0-6.68 6.73 6.7 6.7 0 0 0 6.68-6.73z"/>
  <path class="cls-2" d="M15.77 3.39l-.08-.07zM15.59 8.78a6.73 6.73 0 1 1-6.73-6.73 6.73 6.73 0 0 1 6.73 6.73zm-.93 0a5.8 5.8 0 1 0-5.76 5.8 5.78 5.78 0 0 0 5.76-5.81z"/>
  <path class="cls-1" d="M14.66 8.77A5.8 5.8 0 1 1 8.89 3a5.8 5.8 0 0 1 5.77 5.77zm-5.8-3.88h-.43c-.82 0-.82 0-.77.8a.31.31 0 0 0 0 .1c.14 1.32.35 2.63.59 3.93.06.33.26.43.67.42a.48.48 0 0 0 .53-.46c.09-.58.2-1.14.29-1.72.12-.86.24-1.73.35-2.6.05-.39 0-.47-.42-.47z"/>
  <path class="cls-2" d="M8.84 4.28h.93c.44 0 .53.09.47.54-.12 1-.26 1.95-.4 2.93-.1.64-.23 1.28-.33 1.93a.53.53 0 0 1-.59.52c-.46 0-.68-.1-.75-.48-.27-1.46-.51-2.94-.67-4.42a.41.41 0 0 1 0-.11c-.06-.91-.06-.91.87-.91zM8.85 13.29A1.34 1.34 0 0 1 7.51 12a1.33 1.33 0 0 1 1.31-1.33A1.29 1.29 0 0 1 10.16 12a1.27 1.27 0 0 1-1.31 1.29z"/>
</svg>