<svg id="logo-premium" xmlns="http://www.w3.org/2000/svg" viewBox="0 0 194.54 47.85">
  <path d="M0 0h194.54v47.85H0z"/>
  <path fill="#A69867" d="M29.4 22.13h-1.92v3.68h-1.95v-9.77h3.87c2.06 0 3.29 1.39 3.29 3.05.01 1.66-1.23 3.04-3.29 3.04m-.09-4.39h-1.82v2.68h1.82c.88 0 1.44-.53 1.44-1.33s-.56-1.35-1.44-1.35M37.88 20.61c-.28-.27-.52-.43-.97-.43-.56 0-1.18.41-1.18 1.32v4.31h-1.82v-7.15h1.78v.68c.35-.41 1.05-.77 1.83-.77.72 0 1.22.18 1.73.67l-1.37 1.37zM44.62 25.02c-.45.47-1.19.88-2.27.88s-1.81-.41-2.25-.88c-.66-.67-.83-1.49-.83-2.79 0-1.29.17-2.1.83-2.77.45-.47 1.18-.88 2.25-.88 1.08 0 1.82.41 2.27.88.66.67.83 1.48.83 2.77-.01 1.3-.18 2.11-.83 2.79M43.2 20.5c-.21-.2-.49-.31-.86-.31-.36 0-.63.11-.84.31-.38.38-.42.99-.42 1.73s.04 1.37.42 1.74c.21.21.48.32.84.32.37 0 .65-.11.86-.32.38-.37.42-1 .42-1.74s-.04-1.36-.42-1.73M48.95 20.22v5.59h-1.82v-5.59h-.76v-1.36h.76v-.9c0-1.01.64-2.05 2.13-2.05h1.03v1.51h-.72c-.43 0-.63.23-.63.64v.79h1.34v1.36h-1.33zM55.61 25.81v-.65c-.48.49-1.15.74-1.82.74-.73 0-1.32-.24-1.72-.63-.59-.58-.74-1.25-.74-2.03v-4.57h1.82v4.32c0 .97.63 1.3 1.21 1.3s1.22-.33 1.22-1.3v-4.32h1.82v7.15h-1.79zM61.44 25.81c-1.48 0-2.12-1.02-2.12-2.04v-3.54h-.77v-1.36h.77v-2.12h1.82v2.12h1.29v1.36h-1.29v3.43c0 .41.19.65.63.65h.66v1.51h-.99zM68.01 25.81v-.65c-.48.49-1.15.74-1.82.74-.73 0-1.31-.24-1.72-.63-.59-.58-.74-1.25-.74-2.03v-4.57h1.82v4.32c0 .97.63 1.3 1.21 1.3.57 0 1.22-.33 1.22-1.3v-4.32h1.82v7.15h-1.79zM75.52 20.61c-.28-.27-.52-.43-.96-.43-.56 0-1.18.41-1.18 1.32v4.31h-1.82v-7.15h1.78v.68c.35-.41 1.05-.77 1.83-.77.72 0 1.22.18 1.72.67l-1.37 1.37zM82.26 25.02c-.45.47-1.19.88-2.27.88s-1.81-.41-2.25-.88c-.66-.67-.83-1.49-.83-2.79 0-1.29.17-2.1.83-2.77.45-.47 1.18-.88 2.25-.88 1.08 0 1.82.41 2.27.88.66.67.83 1.48.83 2.77-.01 1.3-.18 2.11-.83 2.79m-1.42-4.52c-.21-.2-.49-.31-.86-.31-.36 0-.63.11-.84.31-.38.38-.42.99-.42 1.73s.04 1.37.42 1.74c.21.21.48.32.84.32s.64-.11.86-.32c.38-.37.42-1 .42-1.74s-.04-1.36-.42-1.73"/>
  <path fill="#A69867" d="M83.55 14.06c-.06.01-.06.04-.06.05 0 .02.01.05.04.05 4.86.21 6.82 2.58 5.42 7.12-1.43 4.65-6.04 10.37-12.48 14.72-.15.1.03.3.1.28 8.04-4.63 14.64-10.92 16.19-15.94 1.53-4.98-2.36-7.28-9.21-6.28M91.33 12.01c-.02-.03-.09-.12-.02-.13 1.31-.18 3.08-.44 3.53.36.44.8-.43 4.28-1.67 2.47-1.3-1.88-1.55-2.33-1.84-2.7M70.68 29.44c0 .42.24.68.55.68.24 0 .49-.27.49-.67 0-.38-.25-.66-.49-.66-.36.01-.55.29-.55.65m1.9-1.26v2.52h-.86v-.22c-.12.1-.31.3-.86.3-.61 0-1.1-.53-1.1-1.32 0-.75.42-1.33 1.16-1.33.49 0 .74.21.8.29v-.24h.86zM57.95 30.16c.31 0 .55-.32.55-.7s-.19-.7-.55-.7c-.43 0-.61.32-.61.7s.24.7.61.7m0 .62c-.92 0-1.53-.52-1.53-1.32 0-.78.68-1.33 1.53-1.33.79 0 1.47.53 1.47 1.33 0 .79-.68 1.32-1.47 1.32M68.48 29.46c0-.36-.19-.66-.49-.66-.31 0-.55.27-.55.66 0 .38.18.63.55.63.31 0 .49-.25.49-.63m-1.9 1.24v-3.54h.86v1.21c.06-.05.36-.24.79-.24.68 0 1.17.56 1.17 1.28 0 .91-.55 1.36-1.17 1.36-.49 0-.73-.2-.79-.27l-.06.19h-.8zM61.81 28.2h.92v2.52h-.92zM62.3 26.92c-.31 0-.49.21-.49.48s.18.52.49.52c.24 0 .49-.24.49-.52 0-.27-.25-.48-.49-.48M73.2 30.7h.86v-1.28c0-.32.19-.52.43-.52.31 0 .49.2.49.52v1.28h.86v-1.51c0-.56-.37-1.05-1.04-1.05-.49 0-.68.24-.8.34l-.06-.27h-.74v2.49"/>
  <path fill="#A69867" d="M76.38 30.7h.86v-1.15l.8 1.15h.98l-.93-1.31.93-1.19h-.98l-.8 1.05v-2.09h-.86zM56.23 28.24c-.06-.03-.31-.11-.67-.11-.8 0-1.35.51-1.35 1.33 0 .76.55 1.31 1.35 1.31.3 0 .61-.08.67-.08l-.06-.75c-.06.03-.24.13-.43.13-.37 0-.62-.24-.62-.61 0-.38.25-.61.62-.61.18 0 .37.1.43.13l.06-.74M64.07 29.44c0 .42.25.68.55.68.25 0 .49-.27.49-.67 0-.38-.19-.66-.49-.66-.36.01-.55.29-.55.65m1.96-1.26v2.52h-.92v-.22c-.12.1-.31.3-.86.3-.61 0-1.16-.53-1.16-1.32 0-.75.48-1.33 1.22-1.33.49 0 .74.21.8.29v-.24h.92zM51.33 30.64c.25.05.67.13 1.04.13.74 0 1.53-.26 1.53-1.09 0-1.11-1.59-.98-1.59-1.43 0-.22.24-.27.49-.27.31 0 .74.16.8.19l.12-.78c-.25-.08-.61-.11-.92-.11-.74 0-1.47.27-1.47 1.04 0 1.1 1.53.88 1.53 1.47 0 .21-.19.29-.49.29-.43 0-.79-.2-.92-.24l-.12.8M61.44 30.03c-.06.02-.19.05-.31.05-.19 0-.37-.08-.37-.4v-.86h.55v-.62h-.55v-.81h-.86v.81h-.37v.62h.37v1.02c0 .56.24.92.92.92.18 0 .36-.03.49-.05l.13-.68M26.8 27.64l-1.26 3.08h.41l.32-.79h1.41l.32.79h.44l-1.22-3.08h-.42zm-.38 1.92l.56-1.41.56 1.41h-1.12zM28.58 30.73h.41v-1.4h1.07v-.37h-1.07v-.94h1.12v-.38h-1.53zM31.91 27.87c-.18-.15-.41-.22-.7-.22h-.79v3.08h.41v-1.28h.35c.14 0 .27-.02.39-.05.12-.04.23-.1.32-.17s.17-.17.22-.28c.05-.11.08-.24.08-.39 0-.31-.09-.54-.28-.69m-.2.96c-.04.07-.1.12-.17.16-.07.04-.16.06-.25.07-.1.01-.2.02-.31.02h-.14v-1.06h.41c.17 0 .31.04.39.14.09.09.14.22.14.39-.01.11-.03.21-.07.28M34.97 28.68a.474.474 0 0 0-.1-.1 1.07 1.07 0 0 0-.21-.13.749.749 0 0 0-.31-.05c-.17 0-.31.03-.43.09s-.22.15-.3.25c-.08.11-.13.23-.17.38-.03.14-.05.3-.05.47 0 .17.02.32.06.46.04.15.1.27.18.38.08.11.18.2.3.26s.26.1.41.1c.17 0 .31-.04.43-.1.07-.04.14-.1.19-.17v.22h.39v-3.3h-.39v1.24zm-.03 1.2c-.02.1-.06.2-.1.28-.05.08-.1.15-.18.2-.07.05-.16.07-.27.07-.11 0-.21-.03-.28-.07a.546.546 0 0 1-.18-.19.794.794 0 0 1-.1-.27c-.02-.11-.03-.21-.03-.31s.01-.2.03-.31c.02-.1.05-.19.1-.27a.486.486 0 0 1 .46-.26c.11 0 .2.02.27.08.08.05.13.12.18.2.05.08.08.18.1.28.02.1.03.2.03.29 0 .08-.01.17-.03.28M37.32 28.74a.788.788 0 0 0-.29-.25.928.928 0 0 0-.42-.09.902.902 0 0 0-.71.34c-.08.11-.15.23-.2.38a1.78 1.78 0 0 0-.01.95c.04.14.09.27.18.38.08.11.2.2.33.25.13.06.29.09.48.09.1 0 .21-.01.33-.03.12-.02.23-.05.32-.09l.03-.01v-.42l-.09.06c-.03.01-.07.03-.11.05-.05.02-.1.04-.15.05l-.16.03c-.18.03-.32.01-.43-.05a.526.526 0 0 1-.2-.16.899.899 0 0 1-.12-.24c-.02-.08-.04-.16-.04-.25h1.48v-.2c0-.14-.01-.29-.05-.42-.04-.15-.1-.27-.17-.37m-1.27.63a.776.776 0 0 1 .16-.41c.05-.07.11-.12.18-.16a.47.47 0 0 1 .46 0c.06.04.12.09.15.15.04.07.07.14.09.22.01.06.02.14.02.2h-1.06zM37.84 27.42h.39v3.3h-.39zM41.24 28.6c-.02-.02-.04-.04-.06-.05a.95.95 0 0 0-.17-.1c-.06-.02-.12-.04-.19-.05-.06-.01-.13-.01-.21-.01-.17 0-.31.03-.43.09s-.22.15-.3.26c-.07.11-.13.23-.17.38-.03.14-.05.3-.05.47 0 .12.01.25.05.38.03.14.08.26.16.37.07.11.18.21.3.28.12.07.28.11.46.11.15 0 .29-.03.41-.1.07-.04.14-.1.19-.18 0 .08-.01.15-.01.22-.01.12-.04.24-.09.33-.04.09-.11.16-.2.22-.09.05-.22.08-.38.08-.11 0-.23-.02-.33-.04a.909.909 0 0 1-.28-.11l-.08-.04-.03.41.05.01c.06.02.15.04.26.07.12.03.26.05.41.05.19 0 .36-.03.5-.09s.25-.15.33-.26c.09-.1.15-.23.19-.37.03-.14.05-.29.05-.44v-2.05h-.38v.16zm-.04 1.27c-.02.1-.06.18-.1.25-.05.08-.11.14-.19.18-.08.05-.17.07-.28.07-.1 0-.19-.03-.26-.07a.462.462 0 0 1-.17-.17.673.673 0 0 1-.1-.26 1.526 1.526 0 0 1 0-.61c.02-.1.05-.19.1-.27a.486.486 0 0 1 .46-.26c.11 0 .21.02.28.06.07.04.13.1.17.17.05.08.08.16.1.27.02.11.03.23.03.35 0 .1-.01.19-.04.29M43.05 28.4a.56.56 0 0 0-.32.03c-.07.03-.12.07-.17.12-.05.04-.09.09-.12.14v-.25h-.39l.01.07c0 .04.01.07.01.1v2.11h.39v-1.13c0-.09.01-.19.03-.29.01-.1.04-.18.08-.26.04-.08.08-.14.15-.19a.35.35 0 0 1 .23-.07c.03 0 .06 0 .09.01.03 0 .06.01.08.02l.08.02v-.4l-.04-.01c-.04 0-.07-.01-.11-.02M45.21 30.4c0-.08-.01-.16-.01-.25v-1.72h-.38v1.26c0 .08-.01.17-.03.26a.72.72 0 0 1-.1.24c-.04.07-.1.12-.18.17-.07.04-.16.06-.28.06-.16 0-.27-.05-.34-.15-.08-.11-.11-.27-.11-.46v-1.38h-.38v1.44c0 .12.01.24.04.35.03.11.08.2.14.29.06.08.15.14.25.19.1.05.22.07.36.07a.914.914 0 0 0 .53-.16c.05-.04.09-.09.13-.14v.24h.39l-.01-.07c-.02-.06-.02-.15-.02-.24M47.39 28.74a.942.942 0 0 0-.3-.26.942.942 0 0 0-.43-.09c-.12 0-.23.02-.32.06-.08.04-.15.09-.22.14-.04.04-.07.07-.1.11l.01-.25h-.39v3.17h.39V30.5c.05.07.11.12.17.17.12.08.27.11.45.11.16 0 .3-.03.42-.1.12-.06.22-.15.3-.26.08-.11.14-.23.18-.38.04-.14.06-.29.06-.46 0-.17-.02-.32-.05-.47-.04-.14-.1-.27-.17-.37m-.22 1.15c-.02.1-.05.19-.1.27-.05.08-.1.14-.18.19-.07.05-.16.07-.28.07-.11 0-.2-.03-.27-.07a.578.578 0 0 1-.18-.2c-.04-.08-.08-.18-.1-.28a1.526 1.526 0 0 1 0-.59c.02-.1.06-.19.1-.28.05-.08.1-.15.18-.2.07-.05.16-.07.27-.07a.486.486 0 0 1 .46.26c.05.08.08.17.1.27a1.709 1.709 0 0 1 0 .63M49.86 29.14a1.13 1.13 0 0 0-.19-.38c-.09-.11-.2-.2-.33-.27-.14-.07-.3-.1-.48-.1-.19 0-.35.03-.48.1s-.25.16-.33.27c-.09.11-.15.24-.19.38a1.611 1.611 0 0 0 0 .88c.04.15.11.27.19.38.09.11.2.2.33.27.14.07.3.1.48.1s.34-.04.48-.1c.14-.06.24-.16.33-.27.09-.11.15-.24.19-.38a1.611 1.611 0 0 0 0-.88m-.39.78c-.03.1-.07.19-.13.27-.05.07-.12.13-.2.18-.16.08-.4.08-.56 0a.578.578 0 0 1-.2-.18.845.845 0 0 1-.13-.27c-.03-.1-.04-.22-.04-.34 0-.12.01-.23.04-.33s.07-.2.13-.27c.05-.07.12-.13.2-.18.08-.04.17-.06.28-.06.1 0 .2.02.28.06.08.04.15.1.2.18.06.08.1.17.13.27s.04.22.04.33c0 .12-.02.24-.04.34M99.05 15.99c1.16 1.01 1.61 2.58 1.14 4.7-.63 2.88-2.82 6.28-5.96 9.65h65.34V15.99H99.05zm14.47 9.5c-.3.3-.79.48-1.32.48-.55 0-.95-.14-1.31-.54v2.45h-1.34v-7.37h1.3v.51c.37-.41.77-.57 1.34-.57.53 0 1.02.18 1.32.49.54.54.55 1.46.55 2.27.01.81 0 1.74-.54 2.28m4.76-3.5c-.21-.21-.38-.32-.71-.32-.41 0-.87.31-.87.99v3.25h-1.35v-5.39h1.32v.52c.26-.31.77-.58 1.35-.58.53 0 .9.14 1.27.51l-1.01 1.02zm5.89 1.65h-3.38c0 .69.42 1.2 1.18 1.2.59 0 .88-.17 1.22-.51l.82.8c-.55.55-1.08.85-2.05.85-1.27 0-2.49-.58-2.49-2.76 0-1.76.95-2.75 2.35-2.75 1.5 0 2.35 1.1 2.35 2.58v.59zm8.86 2.27h-1.35v-3.26c0-.73-.47-.98-.89-.98-.41 0-.9.25-.9.95v3.29h-1.34v-3.26c0-.73-.47-.98-.89-.98-.42 0-.9.25-.9.98v3.26h-1.35v-5.39h1.31v.5c.35-.36.85-.56 1.35-.56.6 0 1.08.22 1.43.68.46-.48.94-.68 1.61-.68.54 0 1.02.17 1.33.48.43.43.59.94.59 1.53v3.44zm2.79 0h-1.34v-5.39h1.34v5.39zm-.79-6.14c-.45 0-.81-.36-.81-.81a.815.815 0 1 1 1.63 0c-.01.45-.38.81-.82.81m6.71 6.14h-1.31v-.5c-.35.37-.85.56-1.35.56-.54 0-.97-.17-1.27-.47-.44-.43-.55-.94-.55-1.53v-3.45h1.34v3.26c0 .74.47.98.89.98.42 0 .9-.25.9-.98v-3.26h1.35v5.39zm9.13 0h-1.34v-3.26c0-.73-.47-.98-.89-.98-.41 0-.9.25-.9.95v3.29h-1.34v-3.26c0-.73-.46-.98-.89-.98s-.9.25-.9.98v3.26h-1.35v-5.39h1.31v.5c.35-.36.85-.56 1.35-.56.6 0 1.08.22 1.43.68.46-.48.94-.68 1.61-.68.54 0 1.02.17 1.32.48.43.43.59.94.59 1.53v3.44z"/>
  <path fill="#A69867" d="M121.82 21.58c-.45 0-.75.24-.9.56-.08.2-.12.34-.13.58h2.05c-.01-.24-.04-.39-.12-.58-.14-.33-.44-.56-.9-.56M111.81 21.67c-.81 0-.91.66-.91 1.54s.11 1.55.91 1.55c.81 0 .91-.67.91-1.55s-.1-1.54-.91-1.54"/>
</svg>
