<svg id="logo-normal" xmlns="http://www.w3.org/2000/svg" viewBox="0 0 194.55 47.85">
  <path fill="#EE3224" d="M0 0h194.55v47.85H0z"/>
  <path fill="#FFFFFF" d="M59.39 23.96H57v4.53h-2.36v-12h4.75a3.76 3.76 0 1 1 0 7.49m-.12-5.39H57v3.29h2.24a1.65 1.65 0 1 0 0-3.29M69.81 22.09a1.56 1.56 0 0 0-1.2-.52 1.48 1.48 0 0 0-1.44 1.62v5.3h-2.23V19.7h2.18v.84a3 3 0 0 1 2.25-.94 2.73 2.73 0 0 1 2.12.83zM78.08 27.51a4.12 4.12 0 0 1-5.56 0c-.8-.83-1-1.82-1-3.43s.21-2.58 1-3.4a4.12 4.12 0 0 1 5.56 0c.81.82 1 1.81 1 3.4a4.518 4.518 0 0 1-1 3.43m-1.74-5.55a1.42 1.42 0 0 0-1-.39 1.37 1.37 0 0 0-1 .39 2.94 2.94 0 0 0-.52 2.12 3 3 0 0 0 .52 2.14 1.37 1.37 0 0 0 1 .39 1.42 1.42 0 0 0 1-.39 3 3 0 0 0 .52-2.14 2.94 2.94 0 0 0-.52-2.12M83.39 21.62v6.87h-2.23v-6.87h-.94v-1.67h.94v-1.07a2.42 2.42 0 0 1 2.61-2.51H85v1.86h-.87a.7.7 0 0 0-.78.79v1H85v1.67zM91.59 28.49v-.81a3.17 3.17 0 0 1-2.24.91 2.94 2.94 0 0 1-2.12-.78 3.21 3.21 0 0 1-.92-2.49V19.7h2.25v5.31a1.478 1.478 0 1 0 2.94 0V19.7h2.23v8.79zM98.74 28.49a2.41 2.41 0 0 1-2.6-2.52v-4.35h-.94v-1.67h.94v-2.6h2.24v2.6H100v1.67h-1.62v4.26a.7.7 0 0 0 .78.8h.8v1.85zM106.81 28.49v-.81a3.12 3.12 0 0 1-2.24.91 3 3 0 0 1-2.11-.78 3.21 3.21 0 0 1-.92-2.49V19.7h2.24v5.31a1.5 1.5 0 1 0 3 0V19.7H109v8.79zM116 22.09a1.54 1.54 0 0 0-1.19-.52 1.48 1.48 0 0 0-1.45 1.62v5.3h-2.24V19.7h2.19v.84a3.07 3.07 0 0 1 2.26-.94 2.7 2.7 0 0 1 2.11.83zM124.32 27.51a3.76 3.76 0 0 1-2.79 1.08 3.71 3.71 0 0 1-2.77-1.08c-.81-.83-1-1.82-1-3.43s.21-2.58 1-3.4a3.71 3.71 0 0 1 2.77-1.08 3.76 3.76 0 0 1 2.79 1.08c.81.82 1 1.81 1 3.4a4.518 4.518 0 0 1-1 3.43m-1.74-5.55a1.6 1.6 0 0 0-2.09 0 2.94 2.94 0 0 0-.49 2.12 3 3 0 0 0 .51 2.14 1.6 1.6 0 0 0 2.09 0 3 3 0 0 0 .51-2.14 2.94 2.94 0 0 0-.51-2.12"/>
  <path fill="#E9BC00" d="M125.91 14.04c-.08 0-.08.05-.08.07a.06.06 0 0 0 0 .07c6 .26 8.38 3.17 6.67 8.74S125.07 35.67 117.15 41c-.17.12 0 .38.13.35 9.88-5.69 18-13.42 19.9-19.59s-2.91-8.94-11.32-7.72" />
  <path fill="#FFFFFF" d="M135.47 11.52s-.11-.14 0-.16c1.63-.21 3.79-.54 4.34.44s-.53 5.26-2.05 3-1.89-2.86-2.25-3.33M110.1 32.95a.75.75 0 0 0 .68.84c.3 0 .6-.34.6-.82a.74.74 0 0 0-.6-.81c-.45 0-.68.34-.68.79m2.34-1.55v3.09h-1.06v-.27a1.35 1.35 0 0 1-1 .38 1.65 1.65 0 0 1 .07-3.26 1.22 1.22 0 0 1 1 .35v-.29zM94.45 33.88a.79.79 0 0 0 .67-.87c0-.47-.22-.87-.67-.87a.8.8 0 0 0-.75.87.79.79 0 0 0 .75.87m0 .76a1.67 1.67 0 0 1-1.88-1.63 1.72 1.72 0 0 1 1.88-1.63 1.64 1.64 0 1 1 0 3.26M107.39 32.97c0-.43-.23-.81-.59-.81a.74.74 0 0 0-.69.81c0 .47.23.78.69.78s.59-.31.59-.78m-2.33 1.52v-4.34h1v1.48a1.78 1.78 0 0 1 1-.29 1.47 1.47 0 0 1 1.46 1.54 1.49 1.49 0 0 1-1.43 1.69 1.35 1.35 0 0 1-1-.34l-.07.23zM99.19 31.42h1.13v3.09h-1.13zM99.79 29.88a.56.56 0 0 0-.6.59.6.6 0 0 0 .6.63.64.64 0 0 0 .6-.63.61.61 0 0 0-.6-.59M113.19 34.49h1.06v-1.56c0-.39.22-.65.52-.65a.58.58 0 0 1 .6.65v1.56h1v-1.86a1.23 1.23 0 0 0-1.27-1.29 1.27 1.27 0 0 0-1 .41l-.08-.33h-.9v3.07M117.1 34.49h1.06v-1.4l.98 1.4h1.2l-1.14-1.6 1.14-1.47h-1.2l-.98 1.29v-2.56h-1.06zM92.34 31.48a2 2 0 0 0-.82-.14 1.62 1.62 0 1 0 0 3.23 6.681 6.681 0 0 0 .82-.09l-.07-.92a1.33 1.33 0 0 1-.53.16.71.71 0 0 1-.75-.75.7.7 0 0 1 .75-.75 1.18 1.18 0 0 1 .53.16l.07-.9M102 32.95a.75.75 0 0 0 .68.84c.31 0 .6-.34.6-.82s-.23-.81-.6-.81a.736.736 0 0 0-.68.79m2.41-1.55v3.09h-1.13v-.27a1.38 1.38 0 0 1-1.06.38 1.64 1.64 0 0 1 .09-3.26 1.23 1.23 0 0 1 1 .35v-.29zM86.32 34.42a7.15 7.15 0 0 0 1.28.15c.91 0 1.88-.31 1.88-1.33 0-1.37-2-1.21-2-1.76 0-.28.3-.34.6-.34a3.32 3.32 0 0 1 1 .23l.15-1a4.87 4.87 0 0 0-1.13-.13c-.9 0-1.81.34-1.81 1.27 0 1.36 1.89 1.08 1.89 1.81 0 .25-.23.36-.61.36a2.81 2.81 0 0 1-1.13-.3l-.15 1M98.73 33.68a2.05 2.05 0 0 1-.37.05c-.23 0-.45-.1-.45-.49v-1.06h.68v-.76h-.68v-1h-1v1h-.51v.76h.46v1.26A1 1 0 0 0 98 34.57a3.371 3.371 0 0 0 .6-.06l.14-.83M56.18 30.74l-1.54 3.79h.5l.39-1h1.74l.39 1h.54l-1.52-3.79zm-.45 2.35l.68-1.74.68 1.74zM58.38 34.53h.5v-1.72h1.31v-.46h-1.31V31.2h1.38v-.46h-1.88zM62.47 31.01a1.28 1.28 0 0 0-.86-.27h-1v3.79h.5v-1.58h.43a1.51 1.51 0 0 0 .48-.07.92.92 0 0 0 .39-.21.94.94 0 0 0 .27-.35 1.189 1.189 0 0 0-.24-1.31m-.24 1.18a.54.54 0 0 1-.21.19 1 1 0 0 1-.31.09h-.57V31.2h.52a.63.63 0 0 1 .48.17.61.61 0 0 1 .16.47.68.68 0 0 1-.07.35M66.23 32.01a1.589 1.589 0 0 0-.13-.13 1.13 1.13 0 0 0-.27-.16 1 1 0 0 0-.37-.07 1.25 1.25 0 0 0-.53.12 1.09 1.09 0 0 0-.37.3 1.82 1.82 0 0 0-.21.47 3.481 3.481 0 0 0 0 .58 2 2 0 0 0 .07.57 1.68 1.68 0 0 0 .21.47 1.06 1.06 0 0 0 .38.31 1 1 0 0 0 .5.11 1.07 1.07 0 0 0 .53-.12.79.79 0 0 0 .24-.21v.28h.47v-4.06h-.47zm0 1.47a1.7 1.7 0 0 1-.12.34.76.76 0 0 1-.22.25.6.6 0 0 1-.33.09.63.63 0 0 1-.35-.09.8.8 0 0 1-.21-.19 1.14 1.14 0 0 1-.12-.34 2.43 2.43 0 0 1 0-.38 2.31 2.31 0 0 1 0-.37 1.14 1.14 0 0 1 .12-.34.69.69 0 0 1 .22-.23.56.56 0 0 1 .35-.1.54.54 0 0 1 .33.1.73.73 0 0 1 .22.24 1.5 1.5 0 0 1 .12.34 1.531 1.531 0 0 1 0 .36 1.47 1.47 0 0 1 0 .36M69.11 32.07a1.118 1.118 0 0 0-.86-.42 1.06 1.06 0 0 0-.5.12 1.09 1.09 0 0 0-.37.3 1.49 1.49 0 0 0-.24.47 1.81 1.81 0 0 0-.09.58 2 2 0 0 0 .07.57 1.28 1.28 0 0 0 .22.47 1 1 0 0 0 .4.32 1.52 1.52 0 0 0 .59.1h.4a2.11 2.11 0 0 0 .4-.11h.05v-.59l-.12.07a.5.5 0 0 1-.13.07l-.18.06-.21.05a.89.89 0 0 1-.53-.06 1 1 0 0 1-.25-.2.84.84 0 0 1-.15-.3 1 1 0 0 1 0-.3h1.81v-.24a1.88 1.88 0 0 0-.06-.53 1.51 1.51 0 0 0-.2-.45m-1.55.8a.93.93 0 0 1 0-.24.84.84 0 0 1 .15-.28 1 1 0 0 1 .22-.19.58.58 0 0 1 .57 0 .53.53 0 0 1 .19.18.79.79 0 0 1 .1.27 2 2 0 0 1 0 .26zM69.75 30.47h.48v4.06h-.48zM73.93 31.88h-.08l-.2-.12-.23-.05h-.26a1.12 1.12 0 0 0-.53.12 1 1 0 0 0-.37.3 1.52 1.52 0 0 0-.2.47 2.15 2.15 0 0 0-.07.58 2 2 0 0 0 .06.47 1.35 1.35 0 0 0 .19.46 1 1 0 0 0 .38.34 1.09 1.09 0 0 0 .57.14 1.06 1.06 0 0 0 .5-.13.79.79 0 0 0 .24-.21v.26a1 1 0 0 1-.11.41.6.6 0 0 1-.25.27 1 1 0 0 1-.46.1 1.34 1.34 0 0 1-.4-.06 1.43 1.43 0 0 1-.35-.12l-.1-.06v.5h.06l.33.09a1.83 1.83 0 0 0 .49.06 1.63 1.63 0 0 0 .62-.12 1.06 1.06 0 0 0 .41-.31 1.26 1.26 0 0 0 .22-.45 2 2 0 0 0 .07-.54v-2.56h-.47zm0 1.56a1 1 0 0 1-.13.3.72.72 0 0 1-.23.23.62.62 0 0 1-.34.09.59.59 0 0 1-.31-.08.88.88 0 0 1-.22-.21 1.52 1.52 0 0 1-.12-.32 1.549 1.549 0 0 1 0-.37 2.311 2.311 0 0 1 0-.37.92.92 0 0 1 .12-.34.69.69 0 0 1 .22-.23.55.55 0 0 1 .34-.1.68.68 0 0 1 .34.08.5.5 0 0 1 .22.21.82.82 0 0 1 .12.32 2 2 0 0 1 0 .43 2.2 2.2 0 0 1 0 .36M76.15 31.67a.63.63 0 0 0-.39 0 .77.77 0 0 0-.21.14.65.65 0 0 0-.15.18v-.31h-.49v2.81h.49v-1.4a2.109 2.109 0 0 1 0-.35 1 1 0 0 1 .1-.32.68.68 0 0 1 .18-.23.49.49 0 0 1 .28-.09h.11a.29.29 0 0 1 .11 0h.09v-.5h-.12M78.8 34.13v-2.41h-.48v1.54a1.93 1.93 0 0 1 0 .33.84.84 0 0 1-.13.29.58.58 0 0 1-.21.2.71.71 0 0 1-.34.08.45.45 0 0 1-.42-.19.94.94 0 0 1-.14-.57v-1.68h-.47v1.77a2 2 0 0 0 0 .43.88.88 0 0 0 .17.35.79.79 0 0 0 .31.23 1 1 0 0 0 .45.08 1.43 1.43 0 0 0 .38 0 1 1 0 0 0 .25-.15.87.87 0 0 0 .17-.16v.29h.47v-.39M81.49 32.07a1.09 1.09 0 0 0-.37-.3 1.16 1.16 0 0 0-.54-.12 1 1 0 0 0-.38.07l-.28.18a.69.69 0 0 0-.11.13v-.31h-.48v3.9h.48v-1.37a.86.86 0 0 0 .22.2 1 1 0 0 0 .54.13 1.08 1.08 0 0 0 .52-.11 1.19 1.19 0 0 0 .36-.31 1.45 1.45 0 0 0 .22-.47 2.47 2.47 0 0 0 .07-.57 2.65 2.65 0 0 0-.06-.58 1.52 1.52 0 0 0-.2-.47m-.28 1.43a1.13 1.13 0 0 1-.11.34 1 1 0 0 1-.22.23.64.64 0 0 1-.36.09.57.57 0 0 1-.32-.09.76.76 0 0 1-.22-.25 1 1 0 0 1-.12-.34 1.47 1.47 0 0 1 0-.36 1.531 1.531 0 0 1 0-.36.92.92 0 0 1 .12-.34.73.73 0 0 1 .22-.24.51.51 0 0 1 .32-.1.57.57 0 0 1 .36.1.81.81 0 0 1 .22.23 1.13 1.13 0 0 1 .11.34 2.31 2.31 0 0 1 0 .37 2.43 2.43 0 0 1 0 .38M84.52 32.58a1.73 1.73 0 0 0-.24-.47 1.2 1.2 0 0 0-.41-.33 1.36 1.36 0 0 0-.6-.13 1.34 1.34 0 0 0-.58.13 1.11 1.11 0 0 0-.41.33 1.31 1.31 0 0 0-.24.47 2.156 2.156 0 0 0 0 1.09 1.23 1.23 0 0 0 .24.47 1.11 1.11 0 0 0 .41.33 1.5 1.5 0 0 0 .58.11 1.53 1.53 0 0 0 .6-.11 1.2 1.2 0 0 0 .41-.33 1.6 1.6 0 0 0 .24-.47 2.52 2.52 0 0 0 .08-.55 2.43 2.43 0 0 0-.08-.54m-.49 1a.92.92 0 0 1-.16.33.57.57 0 0 1-.25.21.76.76 0 0 1-.69 0 .7.7 0 0 1-.25-.21 1.13 1.13 0 0 1-.16-.33 1.93 1.93 0 0 1 0-.42 1.77 1.77 0 0 1 0-.41.886.886 0 0 1 .41-.55.77.77 0 0 1 .34-.08.72.72 0 0 1 .35.08.76.76 0 0 1 .25.22.85.85 0 0 1 .16.33 1.76 1.76 0 0 1 .06.41 1.93 1.93 0 0 1-.06.42"/>
</svg>
